<svg xmlns="http://www.w3.org/2000/svg"
shape-rendering="geometricPrecision"
width="4000" height="4000" viewBox="0 0 480 480">
  <metadata>null</metadata>

<path d="
M 21.268 332.314
C 30.169 332.482 39.1 332.272 48.005 332.277
C 50.506 332.278 53.007 332.284 55.508 332.282
C 56.744 332.281 58.279 332.044 59.463 332.368
C 59.224 334.951 59.461 337.629 59.52 340.22
C 57.044 341.088 53.132 340.382 50.504 340.39
C 43.608 340.411 36.698 340.274 29.805 340.383
C 29.239 344.539 29.929 348.969 29.759 353.164
C 30.235 353.54 30.999 353.341 31.59 353.321
C 33.224 353.264 34.869 353.295 36.505 353.296
C 43.09 353.301 49.676 353.3 56.259 353.3
C 56.417 355.68 55.517 358.878 56.219 361.14
C 47.409 361.255 38.54 360.75 29.735 361.231
C 29.929 365.649 29.804 370.12 29.735 374.541
C 39.86 374.382 50.044 374.57 60.176 374.267
C 60.74 376.729 60.201 379.849 60.277 382.394
C 59.051 382.67 57.47 382.397 56.211 382.376
C 53.809 382.335 51.405 382.364 49.002 382.367
C 39.851 382.381 30.546 381.9 21.415 382.449
C 20.892 381.035 21.252 379.007 21.247 377.501
C 21.235 374.001 21.233 370.501 21.235 367.001
C 21.238 359.501 21.243 352 21.23 344.5
C 21.223 340.468 20.958 336.333 21.268 332.314 Z"
opacity="1" fill="rgb(26,72,132)" fill-rule="evenodd" />
<path d="
M 238.375 168.901
C 237.562 171.837 238.156 175.469 238.096 178.503
C 237.966 185.153 237.899 191.833 237.904 198.501
C 237.92 219.334 237.929 240.167 237.929 261
C 237.929 268.091 237.882 275.183 237.877 282.275
C 237.876 284.038 237.916 285.801 237.915 287.564
C 237.915 288.301 237.836 289.184 238.49 289.646
C 226.341 289.86 214.157 289.535 202.004 289.553
C 170.67 289.599 139.334 289.563 108 289.686
C 97.001 289.729 86.004 289.673 75.006 289.633
C 72.208 289.623 69.414 289.669 66.619 289.728
C 65.722 289.747 64.45 290.096 63.752 289.416
C 68.447 287.355 73.187 285.352 77.906 283.321
C 80.206 282.332 83.435 281.465 85.395 279.917
C 85.756 276.699 85.437 273.243 85.432 269.998
C 85.422 263.665 85.413 257.332 85.417 250.999
C 85.432 226.782 84.606 202.395 85.63 178.202
C 84.274 177.159 82.481 176.657 80.927 175.976
C 78.076 174.726 75.184 173.562 72.303 172.381
C 70.796 171.763 67.979 171.329 67.052 169.98
C 73.043 167.75 79.595 166.761 85.456 164.199
C 86.248 161.847 85.298 158.777 85.603 156.304
C 87.447 155.11 89.383 154.054 91.364 153.107
C 92.406 152.609 93.978 152.147 94.834 151.406
C 95.227 147.155 94.356 142.747 94.912 138.501
C 99.472 136.341 104.189 134.438 108.81 132.401
C 111.124 131.381 113.897 129.483 116.441 129.286
C 127.665 128.421 139.253 129.192 150.506 129.277
C 153.587 129.3 156.665 129.42 159.746 129.462
C 161.142 129.48 163.066 129.795 164.381 129.316
C 167.25 126.619 171.247 124.549 175.16 123.722
C 175.5 118.364 175.213 112.873 175.22 107.501
C 175.228 101.094 175.488 94.601 175.089 88.205
C 177.865 86.29 181.565 85.786 184.429 83.976
C 184.912 83.399 184.717 82.14 184.769 81.419
C 184.872 79.971 185.232 78.521 185.626 77.126
C 186.963 72.401 189.149 67.863 192.104 63.932
C 195.602 59.279 199.95 55.206 204.917 52.154
C 208.876 49.722 213.111 47.746 217.029 45.252
C 219.772 43.506 222.466 41.661 225.001 39.622
C 226.498 38.419 227.938 36.9 229.583 35.913
C 231.041 36.589 232.422 38.266 233.715 39.261
C 236.327 41.271 239.048 43.163 241.812 44.957
C 251.647 51.342 261.922 55.69 268.251 66.19
C 270.417 69.785 272.172 73.7 273.213 77.773
C 273.706 79.702 273.425 82.82 274.432 84.466
C 276.601 85.094 278.723 85.936 280.822 86.771
C 281.623 87.09 282.858 87.279 283.393 87.99
C 282.889 92.05 283.273 96.41 283.265 100.503
C 283.249 108.337 283.214 116.17 283.226 124.003
C 283.231 127.564 283.529 131.242 283.344 134.784
C 270.354 128.883 257.618 122.351 244.645 116.388
C 239.672 114.102 234.706 111.027 229.555 109.22
C 226.994 109.919 224.466 111.519 222.05 112.634
C 217.776 114.606 213.46 116.484 209.198 118.488
C 192.476 126.35 175.628 134.023 158.803 141.66
C 151.076 145.167 143.506 149.019 135.817 152.6
C 132.998 153.913 130.144 155.155 127.338 156.494
C 126.199 157.038 124.674 157.456 123.72 158.279
C 124.222 160.232 124.798 162.589 124.644 164.609
C 126.517 164.944 129.152 164.357 131.11 164.312
C 131.871 164.295 133.147 164.013 133.793 164.429
C 133.728 166.632 133.756 168.848 133.805 171.052
C 133.825 171.937 133.688 173.079 134.068 173.902
C 134.922 175.749 137.153 176.456 138.89 177.104
C 138.561 197.056 138.774 217.043 138.776 237.004
C 138.777 243.17 138.782 249.336 138.793 255.503
C 138.798 258.518 139.199 261.836 138.791 264.816
C 137.34 265.693 135.955 266.733 134.715 267.889
C 134.206 270.573 134.645 273.632 134.603 276.364
C 143.198 275.569 152.012 277.147 160.592 276.353
C 160.659 274.052 161.57 269.698 160.331 267.666
C 159.368 266.086 157.328 265.527 156.362 264.038
C 155.875 260.99 156.245 257.59 156.241 254.501
C 156.233 248.168 156.225 241.834 156.225 235.501
C 156.225 216.035 156.297 196.567 156.159 177.102
C 157.144 176.475 158.321 176.305 159.292 175.581
C 161.467 173.959 161.181 170.544 160.998 168.149
C 162.852 167.688 164.942 168.109 166.845 168.104
C 167.067 170.371 166.445 173.37 168.263 175.102
C 169.204 175.999 171.042 176.174 171.786 177.048
C 171.028 184.219 171.708 191.79 171.717 199.002
C 171.735 213.335 171.743 227.668 171.736 242.001
C 171.734 247.168 171.709 252.335 171.718 257.502
C 171.722 259.782 172.154 262.496 171.678 264.722
C 170.311 265.523 168.986 266.38 167.843 267.483
C 166.977 270.24 167.478 273.549 167.423 276.407
C 176.118 275.73 185.014 276.446 193.734 276.33
C 193.469 273.899 194.542 269.886 193.283 267.7
C 192.366 266.105 190.309 265.521 189.288 264.068
C 188.529 260.012 189.241 255.143 189.238 251.002
C 189.231 242.002 189.23 233.001 189.219 224.001
C 189.206 213.334 189.201 202.668 189.206 192.001
C 189.208 188.668 189.223 185.334 189.221 182.001
C 189.221 180.352 188.96 178.504 189.25 176.888
C 190.062 176.652 190.861 176.389 191.637 176.048
C 195.354 174.414 193.141 170.653 194.248 167.771
C 196.03 167.909 197.833 167.802 199.62 167.898
C 200.184 170.686 198.994 173.856 201.938 175.669
C 202.763 176.177 203.666 176.394 204.544 176.768
C 204.1 197.493 204.478 218.271 204.405 239.007
C 204.376 247.346 205.214 256.133 204.367 264.42
C 203.507 265.85 201.422 266.261 200.445 267.69
C 199.989 270.483 200.428 273.346 200.21 276.149
C 200.752 276.526 201.364 276.323 202.002 276.321
C 203.836 276.316 205.672 276.359 207.507 276.357
C 213.783 276.349 220.138 276.059 226.404 276.384
C 226.489 274.153 227.065 269.804 226.02 267.82
C 225.237 266.333 223.37 265.379 222.1 264.366
C 221.362 262.224 222.081 258.694 222.082 256.406
C 222.085 250.477 222.08 244.547 222.06 238.617
C 221.991 218.074 222.157 197.517 221.939 176.978
C 223.07 176.528 224.555 176.165 225.456 175.307
C 227.069 173.772 226.839 170.663 227.043 168.625
C 229.181 167.645 233.368 168.565 235.737 168.635
C 236.474 168.657 237.772 168.454 238.375 168.901 Z"
opacity="1" fill="rgb(23,70,131)" fill-rule="evenodd" />
<path d="
M 80.204 332.203
C 84.906 331.957 89.665 332.236 94.376 332.207
C 100.577 332.169 106.859 331.669 112.349 335.085
C 122.238 341.237 123.286 357.745 112.824 363.989
C 105.724 368.227 96.795 367.503 88.827 367.667
C 88.833 372.453 88.289 377.563 88.872 382.313
C 86.114 382.24 83.349 382.194 80.594 382.312
C 80.046 381.505 80.364 379.678 80.355 378.713
C 80.326 375.476 80.329 372.239 80.312 369.003
C 80.251 356.744 80.474 344.458 80.204 332.203 Z
M 88.738 340.259
C 88.237 346.748 89.078 353.302 88.631 359.793
C 94.54 359.955 102.606 360.891 107.829 357.64
C 114.026 353.783 112.563 343.765 106.214 340.988
C 104.106 340.066 101.76 340.197 99.511 340.19
C 95.918 340.18 92.33 340.154 88.738 340.259 Z"
opacity="1" fill="rgb(26,70,130)" fill-rule="evenodd" />
<path d="
M 124.295 414.923
C 125.25 414.937 128.064 414.561 128.729 415.221
C 128.707 419.224 128.894 423.232 128.825 427.239
C 130.406 427.697 132.605 427.366 134.255 427.357
C 137.569 427.34 140.939 427.509 144.241 427.248
C 143.777 423.299 144.384 419.195 144.098 415.22
C 144.764 414.45 147.423 414.875 148.452 414.985
C 149.062 421.927 148.608 429.028 148.656 435.996
C 148.673 438.514 148.117 441.848 148.801 444.265
C 147.308 444.254 145.807 444.233 144.321 444.358
C 143.866 443.707 144.128 442.003 144.11 441.195
C 144.04 438.032 143.883 434.708 144.129 431.562
C 140.446 431.129 136.638 431.504 132.945 431.551
C 131.751 431.567 130.054 431.32 129.022 431.906
C 128.779 434.785 128.887 437.681 128.885 440.568
C 128.885 441.673 129.151 443.153 128.887 444.2
C 127.736 444.169 125.284 444.622 124.32 444.12
C 124.769 434.453 123.362 424.56 124.295 414.923 Z"
opacity="1" fill="rgb(229,112,30)" fill-rule="evenodd" />
<path d="
M 139.749 332.296
C 142.54 332.365 145.358 332.348 148.149 332.241
C 148.468 335.775 148.192 339.451 148.204 343.001
C 148.233 351.501 148.253 360.002 148.241 368.502
C 148.234 373.1 147.922 377.812 148.298 382.395
C 146.37 382.331 144.432 382.304 142.502 382.305
C 141.616 382.305 140.435 382.583 139.671 382.139
C 139.384 371.781 139.659 361.367 139.644 351.003
C 139.635 344.923 138.941 338.315 139.749 332.296 Z"
opacity="1" fill="rgb(26,71,129)" fill-rule="evenodd" />
<path d="
M 161.435 427.604
C 162.239 418.797 171.683 412.841 180.044 414.789
C 185.109 415.969 189.186 419.616 190.99 424.472
C 191.753 426.523 192.022 428.668 191.834 430.848
C 190.52 446.049 168.313 449.79 162.503 435.457
C 161.505 432.995 161.195 430.238 161.435 427.604 Z
M 166.398 426.558
C 163.103 437.179 177.117 445.452 184.462 436.921
C 185.451 435.772 186.139 434.44 186.591 432.999
C 189.293 424.383 180.939 415.58 172.325 419.479
C 171.082 420.042 169.977 420.801 169.049 421.806
C 167.811 423.149 166.936 424.825 166.398 426.558 Z"
opacity="1" fill="rgb(233,106,23)" fill-rule="evenodd" />
<path d="
M 168.33 374.95
C 169.873 372.97 171.239 370.857 172.814 368.904
C 174.706 370.024 176.274 371.61 178.227 372.696
C 182.144 374.872 186.979 375.889 191.42 375.323
C 196.262 374.706 201.33 370.082 197.074 365.369
C 194.907 362.969 191.024 362.159 188.01 361.445
C 181.096 359.807 172.509 357.631 170.429 349.824
C 168.327 341.932 173.222 334.612 180.716 332.268
C 187.543 330.133 195.472 331.65 201.672 334.886
C 203.088 335.625 204.799 336.405 205.951 337.526
C 205.097 339.644 203.375 342.539 201.922 344.328
C 196.406 341.483 191.116 338.305 184.567 339.486
C 180.367 340.244 176.502 345.258 180.134 349.047
C 182.154 351.155 185.704 351.788 188.4 352.554
C 195.096 354.456 204.568 356.295 206.789 364.059
C 207.257 365.694 207.488 367.377 207.46 369.077
C 207.316 377.692 199.869 382.345 192.027 383.273
C 183.246 384.311 174.82 380.836 168.044 375.518
C 168.139 375.329 168.235 375.139 168.33 374.95 Z"
opacity="1" fill="rgb(22,66,130)" fill-rule="evenodd" />
<path d="
M 202.871 440.142
C 202.924 439.088 204.027 437.895 204.619 437.032
C 205.476 436.937 206.25 437.772 206.976 438.202
C 208.582 439.154 210.203 440.017 212.055 440.369
C 214.252 440.787 216.882 441.018 218.896 439.807
C 220.939 438.578 221.637 435.714 219.941 433.902
C 215.816 429.497 206.809 432.208 204.331 425.464
C 202.613 420.788 205.853 416.058 210.45 414.905
C 215.281 413.692 220.224 415.037 224.233 417.858
C 224.167 418.915 222.845 420.811 221.995 421.42
C 218.914 419.762 216.311 417.817 212.562 418.477
C 209.714 418.979 206.951 421.922 209.242 424.64
C 210.434 426.054 212.315 426.521 214.013 427.02
C 217.965 428.179 223.991 429.454 225.301 434.055
C 226.688 438.927 223.094 443.028 218.484 444.112
C 212.739 445.462 207.461 443.541 202.871 440.142 Z"
opacity="1" fill="rgb(229,105,22)" fill-rule="evenodd" />
<path d="
M 227.733 332.277
C 230.54 332.315 233.358 332.198 236.164 332.278
C 236.655 333.353 236.274 335.309 236.276 336.501
C 236.279 339.502 236.285 342.503 236.294 345.504
C 236.317 353.671 236.303 361.837 236.286 370.004
C 236.278 373.95 235.677 378.447 236.347 382.331
C 233.649 382.254 230.24 382.841 227.65 382.183
C 227.639 365.599 227.059 348.845 227.733 332.277 Z"
opacity="1" fill="rgb(24,69,129)" fill-rule="evenodd" />
<path d="
M 229.749 154.558
C 231.863 152.734 235.449 151.774 238.016 150.676
C 244.151 148.052 250.29 145.247 256.539 142.912
C 258.514 142.175 260.462 141.364 262.384 140.498
C 263.229 140.117 264.123 139.544 265.094 139.758
C 266.413 140.047 267.752 140.902 268.988 141.441
C 272.248 142.861 275.495 144.306 278.738 145.763
C 287.306 149.612 295.99 153.235 304.513 157.181
C 307.874 158.737 311.126 161.069 314.577 162.332
C 314.362 159.538 314.617 156.76 314.598 153.954
C 314.592 153.06 314.813 151.695 314.38 150.888
C 307.873 146.657 299.85 144.34 293.667 139.611
C 293.056 124.418 294.534 109.104 293.777 93.906
C 294.532 92.657 297.239 92.156 298.567 91.558
C 302.433 89.815 306.257 87.953 310.068 86.096
C 311.264 85.514 313.168 84 314.548 84.286
C 316.625 84.717 318.819 86.127 320.796 86.931
C 325.937 89.021 331.073 91.105 336.166 93.307
C 348.486 98.632 361.03 103.457 373.285 108.932
C 378.327 111.185 383.503 113.196 388.604 115.314
C 390.428 116.071 393.476 116.641 394.884 118.021
C 394.387 121.755 394.744 125.737 394.745 129.5
C 394.749 136.5 394.743 143.499 394.761 150.499
C 394.813 170.833 394.722 191.168 394.742 211.501
C 394.757 227.168 394.742 242.834 394.752 258.5
C 394.755 263.333 394.801 268.166 394.787 272.999
C 394.779 275.755 394.47 278.778 394.936 281.498
C 400.486 283.345 405.926 285.641 411.447 287.605
C 412.668 288.039 413.869 288.525 415.086 288.971
C 415.495 289.121 416.373 289.26 416.5 289.687
C 412.412 290.019 408.113 289.447 404.001 289.418
C 391.391 289.329 378.506 288.705 365.921 289.432
C 365.222 288.699 365.645 286.515 365.647 285.502
C 365.654 282.011 365.609 278.519 365.597 275.028
C 365.549 260.881 364.701 246.57 365.335 232.439
C 365.005 231.976 363.731 232.167 363.169 232.158
C 361.126 232.128 359.109 231.951 357.076 231.861
C 351.044 231.592 345.025 231.347 338.993 231.075
C 336.136 230.947 332.787 230.227 329.981 230.842
C 330.646 245.154 329.973 259.669 329.972 274.003
C 329.972 277.669 329.965 281.335 329.949 285.001
C 329.943 286.147 330.38 288.573 329.715 289.513
C 322.986 289.247 316.179 289.437 309.434 289.431
C 307.454 289.43 305.473 289.445 303.493 289.417
C 302.714 289.406 301.723 289.598 301.031 289.261
C 300.597 285.389 300.834 281.398 300.827 277.501
C 300.814 270.502 300.797 263.503 300.8 256.504
C 300.806 238.171 300.8 219.838 300.782 201.504
C 300.774 193.391 301.158 185.201 300.871 177.097
C 287.266 166.05 269.945 159.622 252.878 156.569
C 248.129 155.72 243.191 155.211 238.372 155.004
C 235.7 154.89 232.295 155.296 229.749 154.558 Z
M 339.852 161.623
C 339.726 162.511 339.398 164.727 339.899 165.442
C 343.052 165.754 346.257 167.333 349.253 168.321
C 355.841 170.495 362.472 172.62 369.12 174.597
C 371.809 175.396 374.398 176.507 377.083 177.312
C 377.822 177.533 379.625 177.81 380.118 178.327
C 379.958 176.759 380.426 174.957 379.902 173.456
C 378.048 172.434 375.732 172.145 373.726 171.473
C 369.919 170.199 366.129 168.891 362.299 167.688
C 357.792 166.273 353.255 164.829 348.781 163.312
C 345.851 162.319 342.923 160.917 339.841 160.582
C 339.845 160.929 339.849 161.276 339.852 161.623 Z
M 349.503 124.634
C 349.048 131.707 349.496 138.912 349.472 146
C 349.462 148.883 348.652 153.177 349.608 155.883
C 353.81 157.038 357.928 158.534 362.107 159.781
C 364.373 160.457 367.733 161.017 369.683 162.37
C 369.892 155.429 369.76 148.449 369.739 141.503
C 369.73 138.261 370.34 134.122 369.514 130.992
C 363.197 127.9 356.007 125.97 349.431 123.447
C 349.455 123.843 349.479 124.238 349.503 124.634 Z"
opacity="1" fill="rgb(234,102,26)" fill-rule="evenodd" />
<path d="
M 235.035 415.103
C 240.309 414.636 245.721 414.934 251.013 414.948
C 253.081 414.954 256.289 414.309 258.221 415.019
C 258.307 416.361 258 417.97 258.328 419.256
C 255.434 419.294 251.746 418.574 248.961 419.418
C 248.728 424.599 248.897 429.81 248.864 434.997
C 248.845 438.012 248.462 441.293 248.856 444.278
C 247.395 444.212 245.859 444.106 244.407 444.287
C 243.73 442.691 244.33 439.442 244.35 437.683
C 244.397 433.568 244.385 429.451 244.395 425.336
C 244.399 423.382 244.713 421.02 244.192 419.132
C 241.226 419.107 238.156 418.961 235.2 419.186
C 234.849 417.851 235.169 416.464 235.035 415.103 Z"
opacity="1" fill="rgb(227,112,29)" fill-rule="evenodd" />
<path d="
M 238.375 168.901
C 242.202 168.132 247.304 169.97 251.098 170.649
C 264.176 172.989 276.253 178.04 287.618 184.804
C 288.306 186.798 287.697 189.875 287.69 192
C 287.671 197.501 287.688 203.001 287.693 208.502
C 287.711 226.835 287.725 245.168 287.738 263.501
C 287.743 269.834 287.733 276.168 287.727 282.501
C 287.725 284.305 287.702 286.108 287.714 287.911
C 287.717 288.28 287.538 289.258 287.749 289.565
C 281.638 288.962 275.162 289.54 269.004 289.543
C 258.85 289.548 248.637 289.265 238.49 289.646
C 237.836 289.184 237.915 288.301 237.915 287.564
C 237.916 285.801 237.876 284.038 237.877 282.275
C 237.882 275.183 237.929 268.091 237.929 261
C 237.929 240.167 237.92 219.334 237.904 198.501
C 237.899 191.833 237.966 185.153 238.096 178.503
C 238.156 175.469 237.562 171.837 238.375 168.901 Z"
opacity="1" fill="rgb(234,102,26)" fill-rule="evenodd" />
<path d="
M 259.985 333.607
C 260.053 332.959 260.037 333.355 259.945 332.42
C 262.827 332.297 265.724 332.439 268.612 332.357
C 268.927 333.776 268.619 335.54 268.622 337
C 268.628 340.167 268.635 343.333 268.641 346.499
C 268.659 355.698 269.081 365.022 268.627 374.207
C 269.584 374.894 272.758 374.288 274.004 374.291
C 279.005 374.302 284.005 374.316 289.006 374.323
C 290.552 374.325 292.098 374.295 293.644 374.282
C 294.14 374.278 294.987 374.127 295.311 374.534
C 295.252 377.141 295.247 379.809 295.387 382.412
C 287.093 381.604 278.341 382.388 270.004 382.39
C 267.669 382.39 265.335 382.388 263 382.383
C 262.053 382.381 260.889 382.624 260.035 382.205
C 259.406 376.493 260.058 370.499 260.06 364.751
C 260.063 354.382 259.792 343.966 259.985 333.607 Z"
opacity="1" fill="rgb(25,69,129)" fill-rule="evenodd" />
<path d="
M 270.464 415.569
C 270.481 415.361 270.499 415.152 270.516 414.944
C 275.002 414.706 279.518 414.869 284.011 414.858
C 286.457 414.851 289.192 414.493 291.598 414.878
C 291.653 416.215 291.667 417.549 291.679 418.89
C 287.787 418.913 283.894 418.912 280.002 418.916
C 278.472 418.918 276.178 418.509 274.856 419.358
C 274.637 421.925 274.61 424.658 274.738 427.232
C 279.542 427.184 285.095 426.416 289.82 427.19
C 289.915 428.618 289.933 429.983 289.837 431.415
C 284.919 431.055 279.815 431.337 274.888 431.478
C 273.901 433.759 274.89 437.644 274.74 440.133
C 280.546 440.71 286.616 439.976 292.461 440.163
C 292.496 441.53 292.22 442.954 292.328 444.303
C 290.568 444.803 287.887 444.216 286.004 444.207
C 280.869 444.183 275.667 443.981 270.539 444.265
C 270.191 443.778 270.395 442.609 270.401 441.993
C 270.416 440.328 270.393 438.661 270.391 436.996
C 270.383 429.963 269.7 422.56 270.464 415.569 Z"
opacity="1" fill="rgb(227,106,23)" fill-rule="evenodd" />
<path d="
M 304.709 414.784
C 306.247 414.779 307.79 414.77 309.326 414.733
C 308.91 422.949 308.992 431.675 309.567 439.878
C 314.739 439.835 319.979 439.759 325.148 439.894
C 325.26 441.19 324.805 443.105 325.283 444.277
C 320.55 443.523 315.283 444.051 310.5 444.082
C 309.056 444.092 306.072 444.771 304.86 444.09
C 305.132 439.101 304.813 434.001 304.804 429.001
C 304.796 424.303 305.09 419.462 304.709 414.784 Z"
opacity="1" fill="rgb(229,104,24)" fill-rule="evenodd" />
<path d="
M 313.463 333.619
C 313.559 332.933 313.539 333.363 313.36 332.331
C 316.177 332.313 319.211 332.069 322.006 332.341
C 321.5 337.943 321.946 343.813 321.973 349.443
C 322.026 360.399 322.122 371.359 322.135 382.313
C 319.364 382.061 316.257 382.015 313.502 382.412
C 313.293 378.636 313.591 374.779 313.54 370.989
C 313.375 358.54 313.282 346.065 313.463 333.619 Z"
opacity="1" fill="rgb(27,71,131)" fill-rule="evenodd" />
<path d="
M 334.322 439.033
C 334.789 438.145 335.493 436.975 336.503 436.708
C 340.082 439.059 343.074 441.199 347.632 440.428
C 350.195 439.994 353.165 437.321 351.209 434.629
C 347.435 429.435 338.145 432.209 335.698 425.39
C 333.964 420.559 337.512 415.904 342.183 414.853
C 346.739 413.829 351.763 415.317 355.398 418.155
C 355.377 419.397 353.651 420.622 353.175 421.744
C 350.75 419.345 346.898 418.193 343.547 418.647
C 341.321 418.949 339.55 420.335 339.688 422.714
C 339.851 425.538 342.633 426.105 344.841 426.83
C 349.185 428.255 355.771 429.19 356.402 434.86
C 356.947 439.76 353.668 443.31 348.938 444.156
C 343.79 445.076 337.701 443.584 334.22 439.549
C 334.254 439.377 334.288 439.205 334.322 439.033 Z"
opacity="1" fill="rgb(224,102,22)" fill-rule="evenodd" />
<path d="
M 342.464 355.602
C 342.778 351.897 344.007 348.195 345.715 344.907
C 352.914 331.046 372.034 327.647 384.46 336.425
C 388.959 339.602 392.393 344.809 393.933 350.054
C 394.78 352.937 395.2 355.998 394.951 359.003
C 394.511 364.289 392.696 369.512 389.276 373.633
C 379.122 385.869 359.087 386.575 348.59 374.468
C 346.408 371.95 344.704 368.848 343.66 365.692
C 342.606 362.507 342.181 358.948 342.464 355.602 Z
M 351.473 354.585
C 348.863 369.551 365.892 381.176 378.592 372.393
C 380.491 371.08 381.958 369.426 383.185 367.481
C 384.44 365.49 385.361 363.255 385.773 360.928
C 386.815 355.048 384.915 348.015 380.465 343.907
C 372.922 336.945 359.695 338.375 354.294 347.286
C 352.93 349.536 351.926 351.988 351.473 354.585 Z"
opacity="1" fill="rgb(235,106,26)" fill-rule="evenodd" />
<path d="
M 415.304 332.413
C 417.655 332.522 421.103 331.772 423.251 332.6
C 427.067 338.188 431.661 343.328 435.742 348.734
C 440.46 354.984 445.108 361.522 450.167 367.485
C 450.466 361.696 450.121 355.803 450.108 350.002
C 450.095 344.234 450.411 338.372 450.049 332.619
C 452.541 332.311 456.3 331.922 458.759 332.472
C 458.285 343.27 458.678 354.189 458.691 364.999
C 458.696 368.834 458.692 372.668 458.699 376.502
C 458.702 378.344 458.436 380.48 458.803 382.283
C 456.293 382.156 453.771 382.258 451.264 382.122
C 449.409 379.956 447.868 377.392 446.128 375.115
C 441.698 369.32 437.125 363.608 432.541 357.936
C 430.511 355.424 428.541 352.828 426.694 350.179
C 426.03 349.226 425.316 348.307 424.651 347.356
C 424.365 346.946 424.322 346.044 423.826 346.103
C 423.612 346.129 423.773 346.53 423.746 346.744
C 424.118 354.122 423.926 361.609 423.879 368.998
C 423.851 373.397 424.14 377.89 423.891 382.275
C 421.251 382.163 417.733 382.862 415.223 382.106
C 415.825 365.569 415.049 348.957 415.304 332.413 Z"
opacity="1" fill="rgb(235,104,24)" fill-rule="evenodd" />

</svg>